<?xml version="1.0" standalone="no"?>
<!DOCTYPE svg PUBLIC "-//W3C//DTD SVG 20010904//EN"
 "http://www.w3.org/TR/2001/REC-SVG-20010904/DTD/svg10.dtd">
<svg version="1.0" xmlns="http://www.w3.org/2000/svg"
 width="512.000000pt" height="512.000000pt" viewBox="0 0 512.000000 512.000000"
 preserveAspectRatio="xMidYMid meet">

<g transform="translate(0.000000,512.000000) scale(0.100000,-0.100000)"
fill="#000000" stroke="none">
<path d="M2393 4786 c-401 -77 -709 -387 -778 -785 -12 -69 -15 -226 -15 -881
0 -848 2 -885 49 -1023 65 -188 194 -361 358 -480 70 -51 224 -123 319 -149
114 -31 354 -31 467 0 217 59 408 188 535 360 66 88 136 235 164 342 l23 85 0
865 0 865 -23 85 c-92 348 -367 620 -713 705 -90 22 -296 28 -386 11z m357
-335 c93 -29 185 -86 260 -161 75 -76 120 -148 158 -252 l27 -73 0 -845 0
-845 -27 -73 c-38 -104 -83 -176 -158 -252 -76 -76 -167 -132 -265 -163 -57
-18 -93 -22 -190 -22 -104 1 -130 5 -193 27 -104 37 -176 83 -252 158 -75 76
-120 147 -158 252 l-27 73 -3 812 c-3 888 -3 886 56 1014 83 181 253 321 444
364 86 20 243 13 328 -14z"/>
<path d="M1066 2520 c-40 -13 -83 -56 -97 -99 -15 -45 -6 -206 20 -338 60
-311 205 -578 440 -814 259 -258 568 -413 924 -464 l47 -6 0 -185 c0 -164 2
-189 20 -223 54 -108 209 -114 273 -11 20 32 22 52 27 219 l5 184 106 18 c730
123 1314 785 1322 1501 2 138 -4 155 -67 202 -38 29 -134 29 -172 0 -58 -43
-67 -65 -76 -191 -18 -259 -86 -463 -221 -663 -66 -98 -202 -238 -302 -312
-116 -86 -295 -172 -440 -210 -115 -30 -128 -32 -315 -32 -186 0 -200 2 -313
32 -227 60 -417 170 -588 341 -237 237 -353 496 -377 844 -9 125 -18 149 -73
189 -29 21 -103 31 -143 18z"/>
</g>
</svg>
